<svg width="86" height="31" viewBox="0 0 86 31" fill="none" xmlns="http://www.w3.org/2000/svg">
<path d="M79.9671 2.80125C81.4838 2.80125 82.5131 3.09003 83.1136 3.68422C83.7139 4.27807 84.0058 5.29848 84.0058 6.80363V24.7546C84.0058 26.2554 83.7151 27.2701 83.1171 27.8567C82.5188 28.4439 81.4884 28.7292 79.9674 28.7292H5.97672C4.4652 28.7292 3.44641 28.4463 2.86228 27.8644C2.27814 27.2825 1.99422 26.2668 1.99422 24.7593V6.80363C1.99422 5.07793 2.18259 4.1274 2.62405 3.62521C3.11828 3.06311 4.18518 2.80125 5.98179 2.80125H79.9671ZM79.9671 1.63782H5.98179C1.56596 1.63782 0.830933 3.16699 0.830933 6.80363V24.7593C0.830933 28.3932 2.34337 29.8927 5.97672 29.8927H79.9673C83.6033 29.8927 85.1691 28.3911 85.1691 24.7546V6.80363C85.1691 3.16699 83.6032 1.63782 79.9671 1.63782Z" fill="black"/>
<path fill-rule="evenodd" clip-rule="evenodd" d="M22.8193 19.2254C22.3946 20.1671 22.1913 20.5874 21.6444 21.4196C20.8811 22.5816 19.8058 24.0285 18.4732 24.0406C17.2888 24.0516 16.9847 23.2698 15.3776 23.2786C13.7706 23.2873 13.4349 24.0544 12.2504 24.0436C10.9177 24.0313 9.89858 22.7245 9.13538 21.5629C7.00142 18.314 6.77848 14.5011 8.09432 12.4743C9.02977 11.0337 10.5049 10.1905 11.8924 10.1905C13.3049 10.1905 14.1929 10.9653 15.3608 10.9653C16.4936 10.9653 17.1842 10.1892 18.8171 10.1892C20.0515 10.1892 21.3594 10.8613 22.2915 12.024C19.2381 13.6975 19.7339 18.0593 22.8193 19.2254Z" fill="black"/>
<path fill-rule="evenodd" clip-rule="evenodd" d="M17.5783 8.89147C18.1713 8.12992 18.6222 7.05391 18.4587 5.95471C17.4897 6.02144 16.3557 6.63815 15.6936 7.44216C15.0928 8.17222 14.5968 9.2548 14.79 10.3068C15.848 10.3395 16.9427 9.70754 17.5783 8.89147Z" fill="black"/>
<path fill-rule="evenodd" clip-rule="evenodd" d="M77.6386 20.7514H73.3481C73.365 21.3331 73.5725 21.8432 73.9711 22.1778C74.332 22.4787 74.7992 22.6159 75.3739 22.6159C76.0104 22.6159 76.5871 22.5081 77.1085 22.302L77.3334 23.2932C76.7267 23.5603 76.0057 23.6878 75.1741 23.6878C74.1787 23.6878 73.3951 23.3952 72.8257 22.8084C72.2568 22.2217 71.97 21.4332 71.97 20.4453C71.97 19.4724 72.236 18.6663 72.7642 18.019C73.323 17.3315 74.0731 16.9878 75.016 16.9878C75.9456 16.9878 76.6466 17.3313 77.1216 18.0188C77.4998 18.5677 77.6909 19.2708 77.6909 20.0744C77.6909 20.3284 77.6724 20.5852 77.6386 20.7514ZM71.5421 18.3904C71.459 18.3646 71.2385 18.354 71.0807 18.354C70.5777 18.354 70.1849 18.5435 69.9106 18.9225C69.6717 19.2586 69.5479 19.676 69.5479 20.1924V23.4938H68.1353V19.157C68.1353 18.4198 68.1047 17.7597 68.0795 17.0949H69.3237L69.3769 18.4245H69.416C69.5655 18.009 69.8025 17.6311 70.131 17.3772C70.4487 17.145 70.8056 17.0188 71.1761 17.0188C71.3071 17.0188 71.459 17.0106 71.5421 17.028V18.3904ZM66.3719 22.7365C65.7789 23.3881 64.9934 23.7144 64.0158 23.7144C63.0696 23.7144 62.3151 23.4012 61.7549 22.7743C61.1953 22.1493 60.9161 21.356 60.9161 20.4039C60.9161 19.4074 61.2045 18.5896 61.7825 17.955C62.3616 17.3168 63.1383 17.0034 64.1178 17.0034C65.0659 17.0034 65.8244 17.3134 66.3981 17.9434C66.9436 18.549 67.2174 19.3372 67.2174 20.2984C67.2175 21.29 66.937 22.099 66.3719 22.7365ZM60.4909 18.2583H58.9952V21.3326C58.9952 22.1266 59.2416 22.5201 59.7977 22.5201C60.0536 22.5201 60.2467 22.5014 60.416 22.4578L60.4482 23.5411C60.1651 23.6469 59.7909 23.7007 59.3319 23.7007C58.7697 23.7007 58.3103 23.5308 57.9935 23.184C57.6727 22.8414 57.4996 22.2624 57.4996 21.4502V18.2583H56.5856V17.0949H57.4996V15.955L58.9952 15.5311V17.0949H60.4909V18.2583ZM55.4648 22.9189C54.881 23.4405 54.0715 23.6997 53.0332 23.6997C52.0709 23.6997 51.3015 23.5135 50.7204 23.1443L51.0526 21.9528C51.6788 22.3219 52.3668 22.5092 53.1154 22.5092C53.6561 22.5092 54.0743 22.3861 54.3748 22.1452C54.6733 21.9033 54.8234 21.5791 54.8234 21.1679C54.8234 20.8109 54.6997 20.5061 54.4541 20.2574C54.2047 20.0108 53.7975 19.7829 53.2231 19.5691C51.6624 18.9881 50.8806 18.1362 50.8806 17.0153C50.8806 16.2828 51.1532 15.6806 51.7059 15.2132C52.2576 14.7465 52.9879 14.5117 53.8981 14.5117C54.7098 14.5117 55.3855 14.6541 55.9248 14.9346L55.5639 16.1005C55.0609 15.8276 54.4891 15.6892 53.8515 15.6892C53.3474 15.6892 52.9521 15.8175 52.6678 16.0589C52.43 16.2827 52.3106 16.5519 52.3106 16.8686C52.3106 17.2194 52.4476 17.5121 52.7206 17.7449C52.9597 17.9558 53.3924 18.184 54.0168 18.4309C54.7874 18.7375 55.3503 19.1017 55.7135 19.5179C56.0745 19.9325 56.2563 20.4481 56.2563 21.065C56.2561 21.8252 55.9906 22.4448 55.4648 22.9189ZM47.203 22.869C46.6701 23.4316 46.0053 23.7143 45.2144 23.7143C44.3628 23.7143 43.7894 23.4104 43.374 22.7989V26.2362H41.9614V19.2476C41.9614 18.5596 41.9351 17.9259 41.9007 17.0949H43.1551L43.2379 18.1752H43.2624C43.7424 17.4273 44.4635 17.0148 45.4345 17.0148C46.1941 17.0148 46.8274 17.3066 47.3347 17.9084C47.8435 18.5072 48.0967 19.2963 48.0967 20.2755C48.0967 21.3732 47.7996 22.2319 47.203 22.869ZM40.1335 22.869C39.6019 23.4316 38.9382 23.7143 38.1494 23.7143C37.2953 23.7143 36.7266 23.4104 36.3112 22.7989V26.2362H34.8986V19.2476C34.8986 18.5596 34.8659 17.9259 34.8295 17.0949H36.0874L36.1664 18.1752H36.1913C36.6705 17.4273 37.3931 17.0148 38.3654 17.0148C39.1244 17.0148 39.7561 17.3066 40.2667 17.9084C40.7724 18.5072 41.0271 19.2963 41.0271 20.2755C41.0271 21.3732 40.73 22.2319 40.1335 22.869ZM32.4866 23.4938L31.6534 20.9176H28.753L27.9574 23.4938H26.4761L29.3466 14.6018H31.1227L34.0105 23.4938H32.4866ZM74.9104 17.9791C74.4436 17.9791 74.0644 18.2183 73.7718 18.6044C73.5339 18.9126 73.3912 19.2555 73.3481 19.7542H76.3267C76.3346 19.2555 76.2441 18.9271 76.0501 18.6165C75.802 18.2207 75.4213 17.9791 74.9104 17.9791ZM30.1956 15.8483H30.1707C30.0808 16.2639 29.9415 16.8169 29.7455 17.5594L29.004 19.9204H31.3997L30.6482 17.5594C30.5668 17.32 30.4151 16.6794 30.1956 15.8483ZM44.9716 18.1382C44.6173 18.1382 44.3008 18.2543 44.0127 18.488C43.7258 18.7251 43.5324 19.0317 43.4436 19.4115C43.3996 19.5895 43.374 19.7338 43.374 19.8495V20.9204C43.374 21.3892 43.5202 21.7855 43.8083 22.1077C44.0945 22.4269 44.4706 22.589 44.9275 22.589C45.4689 22.589 45.8886 22.3829 46.1891 21.9669C46.4898 21.5517 46.6413 21.0047 46.6413 20.3231C46.6413 19.698 46.4993 19.1809 46.2178 18.776C45.9065 18.354 45.4915 18.1382 44.9716 18.1382ZM64.0656 18.0492C63.4934 18.0492 63.0561 18.3032 62.7577 18.8146C62.4989 19.2353 62.3721 19.7493 62.3721 20.3568C62.3721 20.9491 62.4988 21.4539 62.7577 21.8758C63.0634 22.3862 63.4963 22.6401 64.055 22.6401C64.5987 22.6401 65.0287 22.3827 65.3359 21.8598C65.6023 21.4327 65.7354 20.9203 65.7354 20.3321C65.7354 19.7433 65.6077 19.2353 65.3532 18.8145C65.049 18.3032 64.6224 18.0492 64.0656 18.0492ZM37.9001 18.1382C37.5477 18.1382 37.2293 18.2543 36.9416 18.488C36.654 18.7251 36.4663 19.0317 36.3775 19.4115C36.334 19.5895 36.3112 19.7338 36.3112 19.8495V20.9204C36.3112 21.3892 36.453 21.7855 36.7417 22.1077C37.028 22.4269 37.4021 22.589 37.8602 22.589C38.3975 22.589 38.82 22.3829 39.1196 21.9669C39.4196 21.5517 39.5684 21.0047 39.5684 20.3231C39.5684 19.698 39.429 19.1809 39.1462 18.776C38.8356 18.354 38.4215 18.1382 37.9001 18.1382Z" fill="black"/>
<path d="M28.3595 11.0983L27.9632 12.4037H27.0953L28.5714 7.79712H29.6443L31.1409 12.4037H30.2389L29.822 11.0983H28.3595ZM29.6785 10.4627L29.3163 9.32812C29.2275 9.0479 29.1523 8.73352 29.0839 8.46693H29.0703C29.0019 8.73352 28.9335 9.05479 28.8516 9.32812L28.4962 10.4627H29.6785Z" fill="black"/>
<path d="M32.0979 9.0752L32.6379 10.7633C32.7335 11.0573 32.8018 11.3239 32.8633 11.5972H32.8838C32.9453 11.3239 33.0205 11.0641 33.1093 10.7633L33.6356 9.0752H34.524L33.2528 12.4037H32.426L31.1891 9.0752H32.0979Z" fill="black"/>
<path d="M36.8683 12.4037L36.8136 12.0347H36.7931C36.5881 12.2943 36.2396 12.4789 35.8091 12.4789C35.1393 12.4789 34.7634 11.9937 34.7634 11.4878C34.7634 10.6473 35.5083 10.2234 36.7384 10.2302V10.1756C36.7384 9.95684 36.6496 9.5946 36.0619 9.5946C35.7339 9.5946 35.3922 9.69715 35.1667 9.84066L35.0026 9.29393C35.2487 9.14352 35.6792 9 36.2054 9C37.2715 9 37.579 9.67662 37.579 10.4012V11.6041C37.579 11.9048 37.5927 12.1987 37.6269 12.4037H36.8683ZM36.759 10.7771C36.1644 10.7634 35.5972 10.8932 35.5972 11.399C35.5972 11.7271 35.8091 11.8774 36.0755 11.8774C36.4104 11.8774 36.6564 11.6587 36.7316 11.4195C36.7521 11.358 36.759 11.2896 36.759 11.235V10.7771Z" fill="black"/>
<path d="M39.3151 7.55103H38.4677V12.4037H39.3151V7.55103Z" fill="black"/>
<path d="M41.1192 8.14572C41.1192 8.3986 40.9348 8.5968 40.6409 8.5968C40.3607 8.5968 40.1762 8.3986 40.1762 8.14572C40.1762 7.88603 40.3675 7.68774 40.6477 7.68774C40.9348 7.68774 41.1124 7.88603 41.1192 8.14572ZM40.224 9.07522H41.0714V12.4037H40.224V9.07522Z" fill="black"/>
<path d="M41.9464 12.4037C41.96 12.1782 41.9737 11.8091 41.9737 11.4674V7.55103H42.8142V9.53311H42.828C43.0329 9.21191 43.3951 9 43.894 9C44.7072 9 45.288 9.67662 45.2812 10.6882C45.2812 11.8843 44.5226 12.4789 43.7709 12.4789C43.3404 12.4789 42.9577 12.3149 42.7185 11.9048H42.7048L42.6638 12.4037H41.9464ZM42.8142 11.0299C42.8142 11.0983 42.8211 11.1667 42.8348 11.2281C42.9236 11.5631 43.2174 11.8159 43.5796 11.8159C44.1058 11.8159 44.4271 11.3922 44.4271 10.7224C44.4271 10.1346 44.1469 9.65618 43.5864 9.65618C43.2447 9.65618 42.9372 9.90225 42.8416 10.2713C42.828 10.3328 42.8142 10.408 42.8142 10.49V11.0299Z" fill="black"/>
<path d="M46.8191 7.55103H45.9717V12.4037H46.8191V7.55103Z" fill="black"/>
<path d="M48.3226 10.9753C48.3432 11.5768 48.8147 11.8365 49.3477 11.8365C49.7373 11.8365 50.0175 11.7818 50.2704 11.686L50.3934 12.267C50.1063 12.3833 49.7099 12.472 49.2317 12.472C48.1519 12.472 47.5162 11.8091 47.5162 10.7908C47.5162 9.86809 48.0766 9 49.1428 9C50.2225 9 50.5778 9.88853 50.5778 10.6198C50.5778 10.7771 50.5642 10.9001 50.5506 10.9753H48.3226ZM49.7851 10.3875C49.7919 10.0799 49.6553 9.57415 49.0948 9.57415C48.5754 9.57415 48.3568 10.0458 48.3226 10.3875H49.7851Z" fill="black"/>
<path d="M55.8333 10.7088C55.8333 11.9322 54.9722 12.4789 54.1247 12.4789C53.1816 12.4789 52.4573 11.8296 52.4573 10.7634C52.4573 9.66981 53.1748 9 54.1795 9C55.1704 9 55.8333 9.69723 55.8333 10.7088ZM53.3253 10.7429C53.3253 11.3854 53.6396 11.8706 54.1522 11.8706C54.6304 11.8706 54.9654 11.3991 54.9654 10.7292C54.9654 10.2098 54.733 9.61521 54.159 9.61521C53.5645 9.61521 53.3253 10.1893 53.3253 10.7429Z" fill="black"/>
<path d="M56.5239 10.0662C56.5239 9.68352 56.5169 9.36224 56.4965 9.07521H57.2345L57.2756 9.57415H57.296C57.4396 9.31438 57.8018 9 58.3553 9C58.9361 9 59.5376 9.37587 59.5376 10.4284V12.4037H58.697V10.5242C58.697 10.0457 58.5194 9.68352 58.0615 9.68352C57.7267 9.68352 57.4944 9.92269 57.4055 10.1756C57.3782 10.2508 57.3713 10.3533 57.3713 10.449V12.4037H56.524V10.0662H56.5239Z" fill="black"/>
<path d="M62.8112 8.12524V9.07527H63.6108V9.70411H62.8112V11.1735C62.8112 11.5768 62.9206 11.7887 63.2417 11.7887C63.3853 11.7887 63.4946 11.7681 63.5698 11.7477L63.5834 12.3901C63.4604 12.4379 63.2417 12.4722 62.9753 12.4722C62.6676 12.4722 62.408 12.3696 62.2509 12.1988C62.0731 12.0074 61.9911 11.7066 61.9911 11.2693V9.70411H61.5128V9.07527H61.9911V8.32344L62.8112 8.12524Z" fill="black"/>
<path d="M64.2465 7.55103H65.0938V9.5331H65.1075C65.21 9.37587 65.3467 9.24607 65.5244 9.15042C65.6884 9.05468 65.8866 9 66.0984 9C66.6657 9 67.2601 9.37587 67.2601 10.4422V12.4037H66.4196V10.5378C66.4196 10.0526 66.2419 9.69033 65.7773 9.69033C65.4492 9.69033 65.2169 9.90906 65.1281 10.1619C65.1008 10.2302 65.0939 10.3192 65.0939 10.4148V12.4037H64.2465V7.55103H64.2465Z" fill="black"/>
<path d="M68.7503 10.9753C68.7708 11.5768 69.2423 11.8365 69.7754 11.8365C70.1649 11.8365 70.4452 11.7818 70.698 11.686L70.821 12.267C70.5339 12.3833 70.1376 12.472 69.6592 12.472C68.5795 12.472 67.9438 11.8091 67.9438 10.7908C67.9438 9.86809 68.5042 9 69.5704 9C70.6501 9 71.0054 9.88853 71.0054 10.6198C71.0054 10.7771 70.9917 10.9001 70.9781 10.9753H68.7503ZM70.2128 10.3875C70.2196 10.0799 70.0829 9.57415 69.5225 9.57415C69.0031 9.57415 68.7845 10.0458 68.7503 10.3875H70.2128Z" fill="black"/>
</svg>
