<svg width="10" height="10" viewBox="0 0 10 10" fill="none" xmlns="http://www.w3.org/2000/svg">
<path d="M7.35449 9.412L9.99999 10L9.41199 7.3545C9.79923 6.63019 10.0012 5.82132 9.99999 5C9.99999 2.2385 7.76149 0 4.99999 0C2.23849 0 -5.72205e-06 2.2385 -5.72205e-06 5C-5.72205e-06 7.7615 2.23849 10 4.99999 10C5.82132 10.0012 6.63019 9.79923 7.35449 9.412ZM7.20949 8.3555L6.88299 8.5305C6.30372 8.84007 5.6568 9.00137 4.99999 9C4.20887 9 3.43551 8.7654 2.77771 8.32588C2.11992 7.88635 1.60723 7.26164 1.30448 6.53073C1.00173 5.79983 0.922512 4.99556 1.07685 4.21964C1.23119 3.44371 1.61216 2.73098 2.17157 2.17157C2.73098 1.61216 3.44371 1.2312 4.21963 1.07686C4.99556 0.922518 5.79982 1.00173 6.53073 1.30448C7.26163 1.60723 7.88635 2.11992 8.32587 2.77772C8.7654 3.43552 8.99999 4.20887 8.99999 5C8.99999 5.667 8.83749 6.309 8.52999 6.883L8.35549 7.2095L8.68299 8.683L7.20949 8.3555Z" fill="black"/>
</svg>
