<svg width="12" height="12" viewBox="0 0 12 12" fill="none" xmlns="http://www.w3.org/2000/svg">
<g opacity="0.4">
<path d="M8.35449 10.412L11 11L10.412 8.3545C10.7992 7.63019 11.0012 6.82132 11 6C11 3.2385 8.76149 1 5.99999 1C3.23849 1 0.999994 3.2385 0.999994 6C0.999994 8.7615 3.23849 11 5.99999 11C6.82132 11.0012 7.63019 10.7992 8.35449 10.412ZM8.20949 9.3555L7.88299 9.5305C7.30372 9.84007 6.6568 10.0014 5.99999 10C5.20887 10 4.43551 9.7654 3.77771 9.32588C3.11992 8.88635 2.60723 8.26164 2.30448 7.53073C2.00173 6.79983 1.92251 5.99556 2.07685 5.21964C2.23119 4.44371 2.61216 3.73098 3.17157 3.17157C3.73098 2.61216 4.44371 2.2312 5.21963 2.07686C5.99556 1.92252 6.79982 2.00173 7.53073 2.30448C8.26163 2.60723 8.88635 3.11992 9.32587 3.77772C9.7654 4.43552 9.99999 5.20887 9.99999 6C9.99999 6.667 9.83749 7.309 9.52999 7.883L9.35549 8.2095L9.68299 9.683L8.20949 9.3555Z" fill="black"/>
</g>
</svg>
