<svg width="30" height="30" viewBox="0 0 30 30" fill="none" xmlns="http://www.w3.org/2000/svg">
<path d="M14.225 2.5238C13.3039 3.38208 12.5651 4.41708 12.0527 5.56708C11.5403 6.71707 11.2648 7.95849 11.2426 9.21727C11.2204 10.4761 11.452 11.7264 11.9235 12.8938C12.395 14.0611 13.0968 15.1215 13.987 16.0118C14.8773 16.902 15.9377 17.6038 17.105 18.0753C18.2724 18.5469 19.5227 18.7784 20.7815 18.7562C22.0403 18.734 23.2817 18.4585 24.4317 17.9461C25.5817 17.4337 26.6167 16.6949 27.475 15.7738C27.0775 22.3176 21.645 27.5001 15.0013 27.5001C8.09625 27.5001 2.5 21.9038 2.5 15.0001C2.5 8.3563 7.6825 2.9238 14.225 2.5238Z" fill="black"/>
</svg>
