<svg width="24" height="24" viewBox="0 0 24 24" fill="none" xmlns="http://www.w3.org/2000/svg">
<g clip-path="url(#clip0_71_3315)">
<path d="M15 4.99428C15 3.35636 13.6569 2.02856 12 2.02856C10.3431 2.02856 9 3.35636 9 4.99428V9.93714C9 11.5751 10.3431 12.9029 12 12.9029C13.6569 12.9029 15 11.5751 15 9.93714V4.99428Z" stroke="#072D4B" stroke-width="2" stroke-linecap="round" stroke-linejoin="round"/>
<path d="M5 9.93713C5 11.7724 5.7375 13.5326 7.05025 14.8303C8.36301 16.1281 10.1435 16.8571 12 16.8571C13.8565 16.8571 15.637 16.1281 16.9497 14.8303C18.2625 13.5326 19 11.7724 19 9.93713" stroke="#072D4B" stroke-width="2" stroke-linecap="round" stroke-linejoin="round"/>
<path d="M8 20.8114H16" stroke="#072D4B" stroke-width="2" stroke-linecap="round" stroke-linejoin="round"/>
<path d="M12 16.8571V20.8113" stroke="#072D4B" stroke-width="2" stroke-linecap="round" stroke-linejoin="round"/>
</g>
<defs>
<clipPath id="clip0_71_3315">
<rect width="24" height="23.7257" fill="white" transform="translate(0 0.0513916)"/>
</clipPath>
</defs>
</svg>
