<svg width="86" height="31" viewBox="0 0 86 31" fill="none" xmlns="http://www.w3.org/2000/svg">
<path d="M79.967 2.80125C81.4838 2.80125 82.5131 3.09003 83.1136 3.68422C83.7139 4.27807 84.0058 5.29848 84.0058 6.80363V24.7546C84.0058 26.2554 83.7151 27.2701 83.1171 27.8567C82.5188 28.4439 81.4884 28.7292 79.9674 28.7292H5.97672C4.4652 28.7292 3.44641 28.4463 2.86228 27.8644C2.27814 27.2825 1.99422 26.2668 1.99422 24.7593V6.80363C1.99422 5.07793 2.18259 4.1274 2.62405 3.62521C3.11828 3.06311 4.18518 2.80125 5.98179 2.80125H79.967ZM79.967 1.63782H5.98179C1.56596 1.63782 0.830933 3.16699 0.830933 6.80363V24.7593C0.830933 28.3932 2.34337 29.8927 5.97672 29.8927H79.9673C83.6033 29.8927 85.1691 28.3911 85.1691 24.7546V6.80363C85.1691 3.16699 83.6031 1.63782 79.967 1.63782Z" fill="black"/>
<path d="M42.2667 17.8436C40.7091 17.8436 39.476 19.012 39.476 20.6347C39.476 22.1925 40.7091 23.4259 42.2667 23.4259C43.8244 23.4259 45.0575 22.2574 45.0575 20.6347C45.0575 18.9471 43.8244 17.8436 42.2667 17.8436ZM42.2667 22.2574C41.423 22.2574 40.7091 21.5434 40.7091 20.5698C40.7091 19.5961 41.423 18.8821 42.2667 18.8821C43.1105 18.8821 43.8244 19.5313 43.8244 20.5698C43.8244 21.5434 43.1105 22.2574 42.2667 22.2574ZM36.231 17.8436C34.6733 17.8436 33.4401 19.012 33.4401 20.6347C33.4401 22.1925 34.6733 23.4259 36.231 23.4259C37.7886 23.4259 39.0217 22.2574 39.0217 20.6347C39.0217 18.9471 37.7886 17.8436 36.231 17.8436ZM36.231 22.2574C35.3872 22.2574 34.6733 21.5434 34.6733 20.5698C34.6733 19.5961 35.3872 18.8821 36.231 18.8821C37.0747 18.8821 37.7886 19.5313 37.7886 20.5698C37.7886 21.5434 37.0747 22.2574 36.231 22.2574ZM29.0268 18.6874V19.8558H31.8176C31.7527 20.505 31.4931 21.0243 31.1686 21.3488C30.7792 21.7383 30.1302 22.1925 29.0268 22.1925C27.2745 22.1925 25.9765 20.8295 25.9765 19.0769C25.9765 17.3243 27.3394 15.9613 29.0268 15.9613C29.9355 15.9613 30.6493 16.3508 31.1686 16.805L32.0123 15.9613C31.2984 15.3121 30.3898 14.7928 29.0917 14.7928C26.7553 14.7928 24.7433 16.7402 24.7433 19.0769C24.7433 21.4136 26.7552 23.361 29.0917 23.361C30.3898 23.361 31.2984 22.9715 32.0772 22.1276C32.856 21.3488 33.1157 20.2454 33.1157 19.4015C33.1157 19.1418 33.1157 18.8822 33.0508 18.6874H29.0268V18.6874ZM58.4922 19.5962C58.2326 18.9471 57.5835 17.8436 56.1557 17.8436C54.7278 17.8436 53.5597 18.9471 53.5597 20.6347C53.5597 22.1925 54.7278 23.4259 56.2855 23.4259C57.5187 23.4259 58.2976 22.6469 58.557 22.1925L57.6484 21.5434C57.3239 21.9978 56.9345 22.3223 56.2855 22.3223C55.6365 22.3223 55.2471 22.0627 54.9226 21.4785L58.6219 19.9207L58.4922 19.5962ZM54.7278 20.5049C54.7278 19.4664 55.5716 18.8822 56.1558 18.8822C56.61 18.8822 57.0644 19.1418 57.1942 19.4664L54.7278 20.5049ZM51.6775 23.1662H52.9107V15.0525H51.6775V23.1662ZM49.7305 18.4278C49.4059 18.1032 48.8867 17.7786 48.2377 17.7786C46.8748 17.7786 45.5767 19.012 45.5767 20.5698C45.5767 22.1276 46.8099 23.2961 48.2377 23.2961C48.8867 23.2961 49.4059 22.9715 49.6656 22.6469H49.7305V23.0364C49.7305 24.075 49.1463 24.6591 48.2377 24.6591C47.5238 24.6591 47.0045 24.1399 46.8748 23.6854L45.8364 24.1399C46.1608 24.8539 46.9397 25.7625 48.3027 25.7625C49.7305 25.7625 50.8986 24.9188 50.8986 22.9065V17.9734H49.7305V18.4278ZM48.3026 22.2574C47.4589 22.2574 46.745 21.5434 46.745 20.5698C46.745 19.5961 47.4589 18.8821 48.3026 18.8821C49.1462 18.8821 49.7954 19.5961 49.7954 20.5698C49.7954 21.5434 49.1463 22.2574 48.3026 22.2574ZM64.1386 15.0525H61.218V23.1662H62.4511V20.1155H64.1386C65.5014 20.1155 66.7994 19.1418 66.7994 17.5839C66.7994 16.0261 65.5015 15.0525 64.1386 15.0525ZM64.2035 18.9471H62.4511V16.156H64.2035C65.1122 16.156 65.6314 16.9349 65.6314 17.5189C65.5664 18.233 65.0472 18.9471 64.2035 18.9471ZM71.6672 17.7787C70.7585 17.7787 69.8499 18.1682 69.5255 19.012L70.6287 19.4664C70.8884 19.012 71.2778 18.8822 71.7321 18.8822C72.381 18.8822 72.9652 19.2718 73.0301 19.9208V19.9857C72.8354 19.8558 72.3161 19.6612 71.797 19.6612C70.6286 19.6612 69.4605 20.3104 69.4605 21.4786C69.4605 22.5821 70.434 23.2961 71.4724 23.2961C72.3161 23.2961 72.7056 22.9066 73.0301 22.5172H73.0949V23.1663H74.2632V20.0507C74.1335 18.6225 73.0301 17.7787 71.6672 17.7787ZM71.5373 22.2574C71.1479 22.2574 70.5637 22.0627 70.5637 21.5434C70.5637 20.8943 71.2777 20.6996 71.8618 20.6996C72.381 20.6996 72.6406 20.8295 72.9651 20.9593C72.8354 21.7382 72.1863 22.2574 71.5373 22.2574ZM78.352 17.9734L76.989 21.4785H76.9242L75.4964 17.9734H74.1983L76.3401 22.9065L75.1069 25.6328H76.3401L79.6501 17.9734H78.352ZM67.4485 23.1662H68.6817V15.0525H67.4485V23.1662Z" fill="black"/>
<path d="M27.0068 10.2329H29.0289C29.0405 10.279 29.05 10.3347 29.0578 10.4C29.0653 10.4653 29.0692 10.5307 29.0692 10.5959C29.0692 10.861 29.0289 11.1107 28.9483 11.3449C28.8677 11.5792 28.7409 11.7886 28.568 11.9729C28.3837 12.1689 28.1628 12.3207 27.9055 12.4281C27.6482 12.5356 27.3544 12.5894 27.0241 12.5894C26.7246 12.5894 26.4422 12.5356 26.1772 12.4281C25.9123 12.3207 25.6818 12.1709 25.4859 11.9787C25.29 11.7867 25.1345 11.5591 25.0193 11.296C24.904 11.0329 24.8464 10.7457 24.8464 10.4346C24.8464 10.1235 24.904 9.83634 25.0193 9.57324C25.1345 9.31013 25.29 9.08252 25.4859 8.89038C25.6818 8.69842 25.9123 8.54858 26.1772 8.44105C26.4422 8.33351 26.7246 8.27966 27.0241 8.27966C27.3582 8.27966 27.6569 8.33725 27.9199 8.45252C28.183 8.56778 28.4087 8.72717 28.5969 8.93077L28.0611 9.45507C27.9266 9.31304 27.7768 9.20443 27.6117 9.12955C27.4465 9.05459 27.2488 9.0172 27.0184 9.0172C26.8302 9.0172 26.6515 9.05085 26.4825 9.118C26.3135 9.18523 26.1657 9.2803 26.039 9.40321C25.9123 9.5262 25.8114 9.67504 25.7365 9.84972C25.6616 10.0246 25.6242 10.2195 25.6242 10.4346C25.6242 10.6497 25.6616 10.8446 25.7365 11.0194C25.8114 11.1942 25.9131 11.343 26.0419 11.4659C26.1705 11.5889 26.3193 11.684 26.4883 11.7512C26.6573 11.8184 26.8377 11.852 27.0298 11.852C27.2488 11.852 27.4341 11.8203 27.5858 11.7569C27.7375 11.6935 27.8672 11.612 27.9747 11.512C28.0515 11.4429 28.1177 11.3555 28.1734 11.2498C28.229 11.1443 28.2722 11.0261 28.3031 10.8955H27.0068V10.2329V10.2329Z" fill="black"/>
<path d="M30.4923 9.10936V10.0658H32.1456V10.8033H30.4923V11.7598H32.33V12.4973H29.7145V8.37183H32.33V9.10936H30.4923Z" fill="black"/>
<path d="M33.92 12.4973V9.10936H32.7678V8.37183H35.85V9.10936H34.6977V12.4973H33.92Z" fill="black"/>
<path d="M38.4481 8.37183H37.6703V12.4973H38.4481V8.37183Z" fill="black"/>
<path d="M40.1533 12.4973V9.10936H39.001V8.37183H42.0832V9.10936H40.931V12.4973H40.1533Z" fill="black"/>
<path d="M45.7414 12.5895C45.4341 12.5895 45.1489 12.5338 44.8859 12.4224C44.6227 12.311 44.3953 12.1584 44.2032 11.9643C44.0111 11.7704 43.8604 11.5419 43.751 11.2787C43.6416 11.0156 43.5867 10.7342 43.5867 10.4346C43.5867 10.1349 43.6415 9.85362 43.751 9.59052C43.8605 9.32742 44.0112 9.09889 44.2032 8.90484C44.3953 8.71088 44.6227 8.55822 44.8859 8.44678C45.1489 8.33542 45.4341 8.27966 45.7414 8.27966C46.0486 8.27966 46.3338 8.33542 46.597 8.44678C46.86 8.55822 47.0875 8.71088 47.2797 8.90484C47.4717 9.09889 47.6224 9.32742 47.7319 9.59052C47.8413 9.85362 47.8961 10.1349 47.8961 10.4346C47.8961 10.7342 47.8414 11.0156 47.7319 11.2787C47.6224 11.5419 47.4716 11.7704 47.2797 11.9643C47.0875 12.1584 46.86 12.311 46.597 12.4224C46.3338 12.5338 46.0486 12.5895 45.7414 12.5895ZM45.7414 11.852C45.9335 11.852 46.1131 11.8174 46.28 11.7483C46.4471 11.6791 46.5931 11.5832 46.7179 11.4602C46.8427 11.3373 46.9407 11.1885 47.0117 11.0137C47.0827 10.8389 47.1183 10.6458 47.1183 10.4346C47.1183 10.2233 47.0827 10.0304 47.0117 9.85554C46.9407 9.68077 46.8427 9.53202 46.7179 9.40903C46.5931 9.28612 46.4471 9.19005 46.28 9.12091C46.113 9.05177 45.9334 9.0172 45.7414 9.0172C45.5494 9.0172 45.3698 9.05177 45.2028 9.12091C45.0357 9.19005 44.8897 9.28612 44.7649 9.40903C44.64 9.53202 44.5421 9.68077 44.4712 9.85554C44.4 10.0304 44.3646 10.2233 44.3646 10.4346C44.3646 10.6458 44.4 10.8389 44.4712 11.0137C44.5421 11.1885 44.64 11.3373 44.7649 11.4602C44.8897 11.5832 45.0357 11.6791 45.2028 11.7483C45.3699 11.8174 45.5494 11.852 45.7414 11.852Z" fill="black"/>
<path d="M48.5239 8.37183H49.4284L51.0876 11.1375H51.1337L51.0876 10.3424V8.37183H51.8596V12.4973H51.0414L49.2901 9.57606H49.244L49.2901 10.3712V12.4973H48.5239V8.37183Z" fill="black"/>
<path fill-rule="evenodd" clip-rule="evenodd" d="M18.84 13.2773L8.74469 7.46826L16.719 15.4024L18.84 13.2773Z" fill="black"/>
<path fill-rule="evenodd" clip-rule="evenodd" d="M7.80797 7.52759C7.7695 7.59756 7.72754 7.67842 7.72754 7.7675V24.2057C7.72754 24.2572 7.75438 24.3058 7.76817 24.3515L16.2131 15.8904L7.80797 7.52759Z" fill="black"/>
<path fill-rule="evenodd" clip-rule="evenodd" d="M16.7207 16.3765L8.44122 24.6718C8.4654 24.6624 8.48942 24.6516 8.51293 24.6381L18.9741 18.6184L16.7207 16.3765Z" fill="black"/>
<path fill-rule="evenodd" clip-rule="evenodd" d="M22.7966 15.554L19.4586 13.6333L17.2076 15.8886L19.5933 18.2623L22.7966 16.4191C23.1301 16.2273 23.1301 15.7459 22.7966 15.554Z" fill="black"/>
</svg>
