<svg width="35" height="35" viewBox="0 0 35 35" fill="none" xmlns="http://www.w3.org/2000/svg">
<path d="M17.4998 32.0834C9.44546 32.0834 2.9165 25.5544 2.9165 17.5C2.9165 9.44565 9.44546 2.91669 17.4998 2.91669C25.5542 2.91669 32.0832 9.44565 32.0832 17.5C32.0832 25.5544 25.5542 32.0834 17.4998 32.0834ZM12.9644 19.2063L12.9834 19.1961L14.2521 23.3815C14.4155 23.835 14.64 23.9167 14.9128 23.8788C15.1869 23.8423 15.3313 23.695 15.5107 23.5229L17.2432 21.8488L20.9619 24.6021C21.6415 24.9769 22.13 24.7829 22.2992 23.9721L24.7157 12.565C24.9825 11.5034 24.5159 11.0775 23.6919 11.4159L9.49796 16.8992C8.52963 17.2871 8.53546 17.8296 9.32296 18.0702L12.9644 19.2077V19.2063Z" fill="#314FFC" fill-opacity="0.96"/>
</svg>
