<svg width="87" height="31" viewBox="0 0 87 31" fill="none" xmlns="http://www.w3.org/2000/svg">
<g clip-path="url(#clip0_79_369)">
<path d="M80.8007 2.80113C82.3333 2.80113 83.3733 3.08991 83.98 3.68409C84.5866 4.27794 84.8816 5.29836 84.8816 6.80351V24.7545C84.8816 26.2553 84.5878 27.27 83.9836 27.8566C83.3791 28.4437 82.3379 28.7291 80.8011 28.7291H6.03904C4.51176 28.7291 3.48235 28.4462 2.89212 27.8643C2.3019 27.2824 2.01501 26.2667 2.01501 24.7592V6.80351C2.01501 5.07781 2.20534 4.12728 2.65141 3.62509C3.1508 3.06299 4.22882 2.80113 6.04416 2.80113H80.8007ZM80.8007 1.6377H6.04416C1.58229 1.6377 0.8396 3.16686 0.8396 6.80351V24.7591C0.8396 28.393 2.3678 29.8925 6.03904 29.8925H80.801C84.4749 29.8925 86.057 28.391 86.057 24.7545V6.80351C86.057 3.16686 84.4747 1.6377 80.8007 1.6377Z" fill="black"/>
<path d="M23.1349 23.7181L20.4875 24.6729L7.14771 22.0246V12.4283L20.4839 9.78027L23.1349 10.7567V23.7181ZM13.3525 17.1845V20.0508L17.0814 20.5936V17.1845H13.3525ZM17.082 13.5983L13.353 14.141V16.8102H17.082V13.5983ZM12.9758 20.0286V17.185H10.0188V19.6166L12.9758 20.0286ZM12.9786 14.1629L10.0184 14.5753V16.8102H12.9786V14.1629Z" fill="black"/>
<path d="M11.2656 11.0144C11.1042 11.0434 10.9481 11.0715 10.786 11.1006C10.786 11.0774 10.786 11.0596 10.786 11.0418C10.786 10.2648 10.7842 9.48782 10.7869 8.71081C10.7881 8.35538 10.8301 8.0046 10.9488 7.66646C11.1226 7.17142 11.4525 6.81408 11.9253 6.58214C12.2114 6.44186 12.5143 6.35111 12.8232 6.27815C13.0071 6.23469 13.1912 6.19064 13.3771 6.15699C13.5436 6.1269 13.7123 6.10829 13.8805 6.08926C14.0433 6.07081 14.2067 6.07405 14.3695 6.08976C14.7425 6.12557 15.0803 6.2425 15.3474 6.51591C15.533 6.70604 15.6487 6.93591 15.7262 7.18621C15.7813 7.36422 15.8154 7.54646 15.8379 7.73136C15.8657 7.96098 15.874 8.1915 15.8745 8.42236C15.8756 8.96012 15.8748 9.49796 15.8748 10.0358V10.1015C15.7161 10.1304 15.5587 10.1589 15.3955 10.1885C15.3955 10.1648 15.3955 10.1453 15.3955 10.126C15.3953 9.50402 15.3967 8.882 15.3941 8.26014C15.3931 8.00951 15.3745 7.75995 15.3068 7.51654C15.2411 7.28028 15.1341 7.06804 14.945 6.90291C14.7953 6.77211 14.6188 6.69524 14.4257 6.65469C14.2138 6.61023 13.9996 6.60732 13.7847 6.63133C13.3183 6.68336 12.8688 6.80261 12.4317 6.96906C12.2084 7.05408 12 7.16635 11.8168 7.32075C11.5674 7.53084 11.4133 7.79793 11.3355 8.11056C11.2876 8.30344 11.2662 8.49956 11.2659 8.69776C11.2651 9.45001 11.2656 10.2023 11.2656 10.9546V11.0144Z" fill="black"/>
<path d="M18.0439 9.66817C17.8852 9.69676 17.7303 9.72468 17.5691 9.75377C17.5681 9.73349 17.5667 9.71646 17.5667 9.69934C17.5665 9.50471 17.5691 9.31 17.5657 9.11538C17.5628 8.95225 17.5566 8.78895 17.5447 8.62624C17.5362 8.50981 17.5115 8.39521 17.4657 8.28626C17.3879 8.10103 17.2441 7.99532 17.0505 7.95045C16.8931 7.91396 16.7333 7.91455 16.5735 7.92527C16.4972 7.93042 16.4214 7.94122 16.3452 7.94928C16.3374 7.95011 16.3293 7.94937 16.3249 7.94937C16.301 7.7913 16.2775 7.63723 16.2534 7.47768C16.3211 7.46762 16.3892 7.45341 16.4579 7.44826C16.6221 7.43596 16.7867 7.42042 16.9511 7.42017C17.1311 7.41984 17.3092 7.44452 17.4755 7.52164C17.6807 7.61687 17.8072 7.78009 17.8863 7.98452C17.9539 8.15937 17.9863 8.34186 18.0073 8.52701C18.0495 8.89665 18.0464 9.2677 18.046 9.63876C18.0459 9.64682 18.0449 9.65496 18.0439 9.66817Z" fill="black"/>
<path d="M14.8409 7.80786C14.881 7.89155 14.8937 8.16637 14.8824 8.29792C14.774 8.3506 14.6644 8.40138 14.5571 8.45656C14.4325 8.52063 14.3175 8.59883 14.2196 8.69988C14.0799 8.84365 14.0061 9.01916 13.9661 9.21105C13.9252 9.40733 13.9187 9.60653 13.9187 9.80606C13.9187 10.022 13.9196 10.2381 13.92 10.4542C13.92 10.4655 13.9187 10.4768 13.9176 10.4936C13.7611 10.5217 13.6055 10.5496 13.4423 10.5789C13.4423 10.5527 13.4422 10.535 13.4423 10.5174C13.4436 10.2123 13.4387 9.90703 13.4481 9.60213C13.4573 9.30371 13.4998 9.00944 13.6137 8.72905C13.73 8.44276 13.9253 8.22653 14.1954 8.07454C14.3956 7.96185 14.6107 7.8844 14.8274 7.81044C14.8318 7.80894 14.8366 7.80869 14.8409 7.80786Z" fill="black"/>
<path d="M28.0895 13.3895V8.87683H29.4058C31.0866 8.87683 31.9269 9.61004 31.9269 11.0766C31.9269 11.7731 31.6938 12.3327 31.2275 12.7555C30.7613 13.1782 30.1359 13.3895 29.3517 13.3895H28.0895ZM28.843 9.51248V12.757H29.4471C29.979 12.757 30.393 12.6123 30.6886 12.3228C30.9844 12.0332 31.1322 11.6241 31.1322 11.0954C31.1322 10.0402 30.5799 9.51248 29.4757 9.51248H28.843Z" fill="black"/>
<path d="M34.1012 13.4651C33.5989 13.4651 33.1977 13.3146 32.8978 13.0135C32.5979 12.7125 32.4479 12.3133 32.4479 11.8161C32.4479 11.2748 32.6042 10.8521 32.9169 10.5479C33.2295 10.2437 33.6508 10.0916 34.1807 10.0916C34.6894 10.0916 35.0857 10.2395 35.3698 10.5352C35.6538 10.8312 35.7958 11.2413 35.7958 11.7657C35.7958 12.2798 35.6426 12.6915 35.3364 13.001C35.0301 13.3104 34.6183 13.4651 34.1012 13.4651ZM34.1362 10.6738C33.8479 10.6738 33.6201 10.7734 33.4526 10.9728C33.2851 11.1721 33.2014 11.4469 33.2014 11.7972C33.2014 12.135 33.2862 12.401 33.4558 12.595C33.6254 12.7891 33.852 12.8861 34.1362 12.8861C34.4266 12.8861 34.6497 12.7906 34.8055 12.5998C34.9612 12.4088 35.0391 12.1371 35.0391 11.7847C35.0391 11.4302 34.9612 11.1563 34.8055 10.9633C34.6497 10.7703 34.4266 10.6738 34.1362 10.6738Z" fill="black"/>
<path d="M40.9046 10.1671L39.9444 13.3897H39.1718L38.5805 11.2056C38.5571 11.1217 38.5423 11.0274 38.536 10.9224H38.5233C38.519 10.9937 38.4999 11.0861 38.466 11.1993L37.8238 13.3897H37.0671L36.1102 10.1671H36.8731L37.4645 12.4896C37.4836 12.5588 37.4963 12.6512 37.5026 12.7666H37.5249C37.5312 12.6785 37.5482 12.584 37.5758 12.4833L38.2339 10.1671H38.927L39.5121 12.4991C39.5311 12.5725 39.5449 12.6648 39.5534 12.776H39.5756C39.5799 12.6983 39.5958 12.6061 39.6233 12.4991L40.202 10.1671H40.9046Z" fill="black"/>
<path d="M44.3316 13.3896H43.5939V11.5739C43.5939 10.9717 43.3788 10.6706 42.9485 10.6706C42.7239 10.6706 42.5384 10.754 42.3921 10.9208C42.2458 11.0876 42.1728 11.298 42.1728 11.5518V13.3896H41.4319V10.1671H42.1728V10.7021H42.1855C42.4292 10.2952 42.7811 10.0916 43.2411 10.0916C43.595 10.0916 43.8653 10.2054 44.0518 10.433C44.2383 10.6607 44.3316 10.9896 44.3316 11.4196V13.3896Z" fill="black"/>
<path d="M45.9526 8.61877H45.2118V13.3896H45.9526V8.61877Z" fill="black"/>
<path d="M48.3367 13.4651C47.8344 13.4651 47.4332 13.3146 47.1333 13.0135C46.8334 12.7125 46.6835 12.3133 46.6835 11.8161C46.6835 11.2748 46.8397 10.8521 47.1525 10.5479C47.4651 10.2437 47.8863 10.0916 48.4163 10.0916C48.925 10.0916 49.3213 10.2395 49.6054 10.5352C49.8894 10.8312 50.0314 11.2413 50.0314 11.7657C50.0314 12.2798 49.8782 12.6915 49.572 13.001C49.2655 13.3104 48.8539 13.4651 48.3367 13.4651ZM48.3717 10.6738C48.0834 10.6738 47.8556 10.7734 47.6881 10.9728C47.5206 11.1721 47.4369 11.4469 47.4369 11.7972C47.4369 12.135 47.5217 12.401 47.6913 12.595C47.8609 12.7891 48.0876 12.8861 48.3717 12.8861C48.6621 12.8861 48.8852 12.7906 49.041 12.5998C49.1967 12.4088 49.2747 12.1371 49.2747 11.7847C49.2747 11.4302 49.1967 11.1563 49.041 10.9633C48.8852 10.7703 48.6621 10.6738 48.3717 10.6738Z" fill="black"/>
<path d="M53.1848 13.3896H52.4694V12.8861H52.4567C52.232 13.2721 51.9023 13.4652 51.4679 13.4652C51.1478 13.4652 50.8972 13.3792 50.716 13.2071C50.5347 13.0351 50.4442 12.8074 50.4442 12.5242C50.4442 11.9158 50.7981 11.5612 51.5061 11.4605L52.4726 11.3252C52.4726 10.8657 52.2521 10.636 51.8113 10.636C51.4234 10.636 51.0737 10.7682 50.7621 11.0325V10.3937C51.1055 10.1923 51.5018 10.0916 51.9512 10.0916C52.7736 10.0916 53.1848 10.4924 53.1848 11.2937V13.3896ZM52.4725 11.8067L51.7889 11.9011C51.577 11.9284 51.4174 11.9793 51.3104 12.0538C51.2035 12.1282 51.1499 12.2588 51.1499 12.4455C51.1499 12.582 51.1992 12.6937 51.2978 12.7807C51.3963 12.8678 51.5282 12.9113 51.6936 12.9113C51.9183 12.9113 52.1043 12.8332 52.2516 12.6769C52.3989 12.5206 52.4726 12.3239 52.4726 12.0868V11.8067H52.4725Z" fill="black"/>
<path d="M57.025 13.3897H56.2874V12.842H56.2747C56.0373 13.2575 55.6717 13.4651 55.1779 13.4651C54.7773 13.4651 54.4566 13.321 54.2161 13.0324C53.9755 12.7441 53.8552 12.3512 53.8552 11.854C53.8552 11.3211 53.9882 10.8941 54.2543 10.5731C54.5203 10.2521 54.8747 10.0916 55.3178 10.0916C55.7565 10.0916 56.0755 10.2658 56.2747 10.614H56.2874V8.61877H57.025V13.3897ZM56.2969 11.9169V11.4952C56.2969 11.2665 56.2217 11.0725 56.0712 10.913C55.9207 10.7535 55.7288 10.6738 55.4958 10.6738C55.2202 10.6738 55.0035 10.7756 54.8456 10.9791C54.6877 11.1826 54.6087 11.4648 54.6087 11.8256C54.6087 12.1529 54.6845 12.4115 54.8361 12.6013C54.9877 12.7912 55.1916 12.8862 55.4482 12.8862C55.7004 12.8862 55.9048 12.7944 56.0618 12.6108C56.2185 12.4272 56.2969 12.1959 56.2969 11.9169Z" fill="black"/>
<path d="M61.5802 9.21353C61.4805 9.15686 61.3672 9.1286 61.2399 9.1286C60.8817 9.1286 60.7027 9.32896 60.7027 9.7296V10.1671H61.4595V10.7398H60.7059V13.3896H59.9682V10.7398H59.4118V10.1671H59.9682V9.64467C59.9682 9.30478 60.0805 9.03686 60.3053 8.84065C60.53 8.64445 60.8108 8.54639 61.1478 8.54639C61.3302 8.54639 61.4742 8.56633 61.5802 8.60614V9.21353Z" fill="black"/>
<path d="M63.853 10.8625C63.764 10.7933 63.6357 10.7586 63.4683 10.7586C63.2499 10.7586 63.0676 10.8562 62.9214 11.0513C62.7751 11.2464 62.7021 11.5119 62.7021 11.8475V13.3896H61.9644V10.167H62.7021V10.8311H62.7148C62.7868 10.6045 62.8976 10.4277 63.047 10.3007C63.1964 10.1738 63.3634 10.1104 63.5478 10.1104C63.6813 10.1104 63.783 10.1303 63.853 10.1702V10.8625Z" fill="black"/>
<path d="M65.741 13.4651C65.2387 13.4651 64.8375 13.3146 64.5376 13.0135C64.2377 12.7125 64.0878 12.3133 64.0878 11.8161C64.0878 11.2748 64.244 10.8521 64.5568 10.5479C64.8694 10.2437 65.2906 10.0916 65.8206 10.0916C66.3293 10.0916 66.7256 10.2395 67.0097 10.5352C67.2937 10.8312 67.4357 11.2413 67.4357 11.7657C67.4357 12.2798 67.2825 12.6915 66.9763 13.001C66.67 13.3104 66.2582 13.4651 65.741 13.4651ZM65.776 10.6738C65.4877 10.6738 65.26 10.7734 65.0924 10.9728C64.9249 11.1721 64.8412 11.4469 64.8412 11.7972C64.8412 12.135 64.926 12.401 65.0956 12.595C65.2652 12.7891 65.4919 12.8861 65.776 12.8861C66.0664 12.8861 66.2895 12.7906 66.4453 12.5998C66.6011 12.4088 66.679 12.1371 66.679 11.7847C66.679 11.4302 66.6011 11.1563 66.4453 10.9633C66.2896 10.7703 66.0664 10.6738 65.776 10.6738Z" fill="black"/>
<path d="M73.0342 13.3896H72.2966V11.6336C72.2966 11.2959 72.2483 11.0514 72.1519 10.9004C72.0555 10.7493 71.8928 10.6738 71.6638 10.6738C71.4709 10.6738 71.3072 10.7693 71.1726 10.9601C71.0379 11.1511 70.9707 11.3798 70.9707 11.6462V13.3896H70.2299V11.5739C70.2299 10.9739 70.0158 10.6738 69.5877 10.6738C69.3885 10.6738 69.2248 10.764 69.0965 10.9444C68.9682 11.1249 68.9041 11.3588 68.9041 11.6462V13.3896H68.1664V10.1671H68.9041V10.6769H68.9168C69.1521 10.2867 69.4943 10.0916 69.9437 10.0916C70.1684 10.0916 70.365 10.153 70.5334 10.2757C70.702 10.3985 70.8169 10.5594 70.8784 10.7588C71.12 10.314 71.4803 10.0916 71.9594 10.0916C72.6758 10.0916 73.034 10.529 73.034 11.4039V13.3896H73.0342Z" fill="black"/>
<path d="M35.6763 16.7808L34.0389 22.6946H32.9181L31.7808 18.5582C31.7334 18.3824 31.7043 18.1898 31.6933 17.9809H31.6765C31.6625 18.1762 31.6293 18.3659 31.5766 18.5501L30.4348 22.6946H29.2891L27.6183 16.7808H28.7058L29.789 21.111C29.8334 21.2925 29.8612 21.4821 29.8724 21.6801H29.8932C29.9043 21.5398 29.9433 21.3501 30.0099 21.111L31.2349 16.7808H32.2556L33.3889 21.144C33.4278 21.2925 33.4569 21.4684 33.4764 21.6719H33.493C33.5014 21.5345 33.5333 21.353 33.5889 21.1274L34.6513 16.7808H35.6763Z" fill="black"/>
<path d="M36.748 17.5849C36.5897 17.5849 36.4542 17.534 36.3417 17.4322C36.2293 17.3305 36.173 17.2013 36.173 17.0446C36.173 16.8878 36.2293 16.7573 36.3417 16.6527C36.4542 16.5482 36.5897 16.496 36.748 16.496C36.9118 16.496 37.0507 16.5482 37.1646 16.6527C37.2785 16.7573 37.3354 16.8878 37.3354 17.0446C37.3354 17.193 37.2785 17.3202 37.1646 17.4261C37.0507 17.5319 36.9118 17.5849 36.748 17.5849ZM37.2271 22.6945H36.2604V18.4716H37.2271V22.6945Z" fill="black"/>
<path d="M42.1529 22.6946H41.1863V20.315C41.1863 19.5259 40.9043 19.1314 40.3405 19.1314C40.046 19.1314 39.803 19.2406 39.6114 19.4593C39.4196 19.6778 39.3239 19.9534 39.3239 20.2861V22.6945H38.353V18.4715H39.3239V19.1727H39.3405C39.6599 18.6393 40.121 18.3726 40.7238 18.3726C41.1876 18.3726 41.5418 18.5218 41.7862 18.8201C42.0306 19.1184 42.1529 19.5494 42.1529 20.113V22.6946Z" fill="black"/>
<path d="M47.0745 22.6946H46.1078V21.977H46.0911C45.78 22.5213 45.3008 22.7935 44.6537 22.7935C44.1287 22.7935 43.7086 22.6046 43.3934 22.2264C43.0781 21.8484 42.9205 21.3336 42.9205 20.682C42.9205 19.9838 43.0948 19.4242 43.4434 19.0036C43.7919 18.5829 44.2565 18.3726 44.8371 18.3726C45.412 18.3726 45.83 18.6008 46.0912 19.0572H46.1078V16.4425H47.0745V22.6946H47.0745ZM46.1204 20.7645V20.2119C46.1204 19.9124 46.0217 19.6579 45.8246 19.4489C45.6273 19.24 45.3759 19.1355 45.0705 19.1355C44.7093 19.1355 44.4252 19.2688 44.2185 19.5355C44.0115 19.8023 43.9081 20.1721 43.9081 20.6449C43.9081 21.0738 44.0074 21.4127 44.2059 21.6614C44.4045 21.9103 44.6719 22.0347 45.0081 22.0347C45.3386 22.0347 45.6066 21.9144 45.8122 21.6738C46.0177 21.4332 46.1204 21.1302 46.1204 20.7645Z" fill="black"/>
<path d="M50.092 22.7935C49.4336 22.7935 48.908 22.5962 48.515 22.2017C48.1219 21.8072 47.9254 21.2841 47.9254 20.6325C47.9254 19.9233 48.1302 19.3692 48.54 18.9706C48.9497 18.5719 49.5017 18.3726 50.1961 18.3726C50.8628 18.3726 51.3822 18.5664 51.7545 18.954C52.1266 19.3417 52.3127 19.8793 52.3127 20.5665C52.3127 21.2401 52.112 21.7797 51.7107 22.1852C51.3092 22.5908 50.7697 22.7935 50.092 22.7935ZM50.1378 19.1355C49.76 19.1355 49.4613 19.2662 49.242 19.5274C49.0226 19.7886 48.9128 20.1487 48.9128 20.6078C48.9128 21.0505 49.0239 21.399 49.2462 21.6533C49.4684 21.9076 49.7656 22.0348 50.1378 22.0348C50.5183 22.0348 50.8107 21.9096 51.0148 21.6594C51.2189 21.4092 51.321 21.0532 51.321 20.5913C51.321 20.1267 51.2189 19.7678 51.0148 19.5149C50.8106 19.262 50.5183 19.1355 50.1378 19.1355Z" fill="black"/>
<path d="M58.8967 18.4716L57.6384 22.6945H56.6259L55.851 19.8324C55.8205 19.7225 55.801 19.5988 55.7927 19.4613H55.776C55.7705 19.5548 55.7455 19.6758 55.701 19.8242L54.8594 22.6945H53.8678L52.6136 18.4716H53.6135L54.3885 21.5151C54.4135 21.6058 54.4301 21.7268 54.4385 21.878H54.4677C54.476 21.7624 54.4982 21.6388 54.5344 21.5068L55.3967 18.4716H56.3051L57.0717 21.5274C57.0967 21.6236 57.1147 21.7445 57.1259 21.8903H57.1551C57.1606 21.7886 57.1814 21.6675 57.2176 21.5274L57.9758 18.4716H58.8967Z" fill="black"/>
<path d="M61.5193 22.4595V21.4491C61.611 21.5315 61.72 21.6058 61.8464 21.6717C61.9727 21.7377 62.1068 21.7934 62.2484 21.8388C62.3901 21.8841 62.5317 21.9193 62.6734 21.9441C62.8151 21.9688 62.9456 21.981 63.0651 21.981C63.4817 21.981 63.7921 21.9125 63.9963 21.7749C64.2004 21.6375 64.3025 21.4382 64.3025 21.1769C64.3025 21.0367 64.2684 20.9151 64.2004 20.812C64.1323 20.7088 64.0372 20.6148 63.915 20.5295C63.7927 20.4444 63.649 20.3625 63.4838 20.2841C63.3185 20.2058 63.1414 20.124 62.9526 20.0388C62.7497 19.9316 62.5609 19.823 62.3859 19.7129C62.2109 19.6031 62.0588 19.4814 61.9296 19.348C61.8005 19.2146 61.6991 19.0641 61.6255 18.8964C61.5518 18.7287 61.5151 18.532 61.5151 18.3066C61.5151 18.0289 61.5783 17.7877 61.7047 17.5828C61.8311 17.3781 61.9977 17.209 62.2047 17.0756C62.4116 16.9422 62.647 16.8432 62.9108 16.7787C63.1747 16.7141 63.4442 16.6818 63.7192 16.6818C64.3442 16.6818 64.7997 16.7518 65.0858 16.892V17.8612C64.7468 17.6193 64.3108 17.4982 63.7775 17.4982C63.6302 17.4982 63.4838 17.512 63.3379 17.5395C63.1921 17.5671 63.0616 17.6124 62.9463 17.6756C62.831 17.7389 62.7373 17.8199 62.665 17.9189C62.5928 18.0179 62.5567 18.1375 62.5567 18.2777C62.5567 18.4097 62.5844 18.5238 62.64 18.62C62.6956 18.7162 62.7769 18.8043 62.8837 18.884C62.9906 18.9638 63.1213 19.0414 63.2754 19.1169C63.4295 19.1926 63.6079 19.2745 63.8108 19.3623C64.0191 19.4695 64.2156 19.5823 64.4003 19.7005C64.585 19.8187 64.7475 19.9494 64.8878 20.0923C65.028 20.2352 65.1392 20.394 65.2211 20.5685C65.3031 20.7432 65.344 20.9418 65.344 21.1645C65.344 21.4641 65.2829 21.717 65.1607 21.9234C65.0384 22.1295 64.8739 22.2972 64.667 22.4265C64.46 22.5557 64.2218 22.6492 63.9524 22.7069C63.6829 22.7646 63.3982 22.7935 63.0982 22.7935C62.9983 22.7935 62.8753 22.7859 62.7295 22.7708C62.5837 22.7556 62.4343 22.7338 62.2816 22.7049C62.1289 22.6759 61.9844 22.641 61.8483 22.5997C61.7124 22.5584 61.6026 22.5117 61.5193 22.4595Z" fill="black"/>
<path d="M68.1991 22.6492C68.0102 22.7427 67.7617 22.7895 67.4533 22.7895C66.6256 22.7895 66.2117 22.3964 66.2117 21.61V19.2222H65.4993V18.4717H66.2117V17.4942L67.1783 17.2222V18.4717H68.1991V19.2222H67.1783V21.3337C67.1783 21.5839 67.2242 21.7626 67.3158 21.8698C67.4076 21.977 67.5603 22.0306 67.7742 22.0306C67.938 22.0306 68.0797 21.9839 68.1992 21.8905V22.6492H68.1991Z" fill="black"/>
<path d="M70.7374 22.7935C70.0791 22.7935 69.5534 22.5962 69.1604 22.2017C68.7673 21.8072 68.5708 21.2841 68.5708 20.6325C68.5708 19.9233 68.7757 19.3692 69.1855 18.9706C69.5952 18.5719 70.1472 18.3726 70.8416 18.3726C71.5082 18.3726 72.0277 18.5664 72.4 18.954C72.7721 19.3417 72.9582 19.8793 72.9582 20.5665C72.9582 21.2401 72.7574 21.7797 72.3561 22.1852C71.9546 22.5908 71.4151 22.7935 70.7374 22.7935ZM70.7833 19.1355C70.4054 19.1355 70.1068 19.2662 69.8874 19.5274C69.668 19.7886 69.5583 20.1487 69.5583 20.6078C69.5583 21.0505 69.6694 21.399 69.8916 21.6533C70.1139 21.9076 70.4111 22.0348 70.7833 22.0348C71.1638 22.0348 71.4562 21.9096 71.6603 21.6594C71.8644 21.4092 71.9665 21.0532 71.9665 20.5913C71.9665 20.1267 71.8644 19.7678 71.6603 19.5149C71.4562 19.262 71.1638 19.1355 70.7833 19.1355Z" fill="black"/>
<path d="M76.2799 19.383C76.1632 19.2922 75.9951 19.2468 75.7758 19.2468C75.4897 19.2468 75.2508 19.3746 75.0591 19.6304C74.8675 19.886 74.7716 20.2339 74.7716 20.6738V22.6945H73.8049V18.4715H74.7716V19.3417H74.7883C74.8826 19.0449 75.0279 18.8133 75.2237 18.6469C75.4195 18.4805 75.6383 18.3973 75.8799 18.3973C76.0549 18.3973 76.1882 18.4234 76.2799 18.4757V19.383Z" fill="black"/>
<path d="M80.3639 20.8429H77.4557C77.4667 21.2333 77.5883 21.5343 77.8203 21.746C78.0522 21.9578 78.3709 22.0635 78.7765 22.0635C79.232 22.0635 79.65 21.9288 80.0306 21.6594V22.4305C79.6418 22.6725 79.1279 22.7934 78.4891 22.7934C77.8613 22.7934 77.3689 22.6017 77.012 22.2181C76.6551 21.8346 76.4766 21.2951 76.4766 20.5994C76.4766 19.9424 76.6732 19.4069 77.0662 18.9931C77.4592 18.5794 77.9474 18.3724 78.5307 18.3724C79.1139 18.3724 79.5652 18.558 79.8847 18.9291C80.2042 19.3004 80.3639 19.8158 80.3639 20.4757V20.8429ZM79.4306 20.1665C79.4278 19.8228 79.3459 19.5554 79.1848 19.3644C79.0237 19.1735 78.8015 19.0778 78.5182 19.0778C78.2403 19.0778 78.005 19.1782 77.812 19.3788C77.6189 19.5796 77.5002 19.8422 77.4557 20.1665H79.4306Z" fill="black"/>
</g>
<defs>
<clipPath id="clip0_79_369">
<rect width="86.8966" height="30" fill="white" transform="translate(0 0.723633)"/>
</clipPath>
</defs>
</svg>
