<svg width="169" height="36" viewBox="0 0 169 36" fill="none" xmlns="http://www.w3.org/2000/svg">
<path d="M62.9727 23.9607V26.7029H53.8906V23.9607H62.9727ZM55.0391 9.64038V26.7029H51.5234V9.64038H55.0391ZM61.7891 16.5896V19.2615H53.8906V16.5896H61.7891ZM62.9609 9.64038V12.3943H53.8906V9.64038H62.9609ZM68.5391 9.64038V26.7029H65.0234V9.64038H68.5391ZM75.3359 16.9294V19.6716H67.5781V16.9294H75.3359ZM76.1562 9.64038V12.3943H67.5781V9.64038H76.1562ZM81.7109 9.64038V26.7029H78.1953V9.64038H81.7109ZM88.5078 16.9294V19.6716H80.75V16.9294H88.5078ZM89.3281 9.64038V12.3943H80.75V9.64038H89.3281ZM102.816 23.9607V26.7029H93.7344V23.9607H102.816ZM94.8828 9.64038V26.7029H91.3672V9.64038H94.8828ZM101.633 16.5896V19.2615H93.7344V16.5896H101.633ZM102.805 9.64038V12.3943H93.7344V9.64038H102.805ZM114.758 21.0427H118.262C118.191 22.1912 117.875 23.2107 117.312 24.1013C116.758 24.9919 115.98 25.6873 114.98 26.1873C113.988 26.6873 112.793 26.9373 111.395 26.9373C110.301 26.9373 109.32 26.7498 108.453 26.3748C107.586 25.9919 106.844 25.4451 106.227 24.7341C105.617 24.0232 105.152 23.1638 104.832 22.156C104.512 21.1482 104.352 20.0193 104.352 18.7693V17.5857C104.352 16.3357 104.516 15.2068 104.844 14.199C105.18 13.1833 105.656 12.3201 106.273 11.6091C106.898 10.8982 107.645 10.3513 108.512 9.96851C109.379 9.58569 110.348 9.39429 111.418 9.39429C112.84 9.39429 114.039 9.6521 115.016 10.1677C116 10.6833 116.762 11.3943 117.301 12.3005C117.848 13.2068 118.176 14.238 118.285 15.3943H114.77C114.73 14.7068 114.594 14.1248 114.359 13.6482C114.125 13.1638 113.77 12.8005 113.293 12.5583C112.824 12.3083 112.199 12.1833 111.418 12.1833C110.832 12.1833 110.32 12.2927 109.883 12.5115C109.445 12.7302 109.078 13.0623 108.781 13.5076C108.484 13.9529 108.262 14.5154 108.113 15.1951C107.973 15.8669 107.902 16.656 107.902 17.5623V18.7693C107.902 19.6521 107.969 20.4294 108.102 21.1013C108.234 21.7654 108.438 22.3279 108.711 22.7888C108.992 23.2419 109.352 23.5857 109.789 23.8201C110.234 24.0466 110.77 24.1599 111.395 24.1599C112.129 24.1599 112.734 24.0427 113.211 23.8083C113.688 23.574 114.051 23.2263 114.301 22.7654C114.559 22.3044 114.711 21.7302 114.758 21.0427ZM127.848 9.64038V26.7029H124.344V9.64038H127.848ZM133.098 9.64038V12.3943H119.176V9.64038H133.098ZM132.172 25.074C132.172 24.574 132.344 24.156 132.688 23.8201C133.039 23.4841 133.504 23.3162 134.082 23.3162C134.66 23.3162 135.121 23.4841 135.465 23.8201C135.816 24.156 135.992 24.574 135.992 25.074C135.992 25.574 135.816 25.9919 135.465 26.3279C135.121 26.6638 134.66 26.8318 134.082 26.8318C133.504 26.8318 133.039 26.6638 132.688 26.3279C132.344 25.9919 132.172 25.574 132.172 25.074ZM148.602 9.64038H152.105V20.9138C152.105 22.2263 151.824 23.3318 151.262 24.2302C150.707 25.1287 149.938 25.8044 148.953 26.2576C147.977 26.7107 146.852 26.9373 145.578 26.9373C144.305 26.9373 143.172 26.7107 142.18 26.2576C141.195 25.8044 140.422 25.1287 139.859 24.2302C139.305 23.3318 139.027 22.2263 139.027 20.9138V9.64038H142.543V20.9138C142.543 21.6794 142.664 22.3044 142.906 22.7888C143.148 23.2732 143.496 23.6287 143.949 23.8552C144.41 24.0818 144.953 24.1951 145.578 24.1951C146.219 24.1951 146.762 24.0818 147.207 23.8552C147.66 23.6287 148.004 23.2732 148.238 22.7888C148.48 22.3044 148.602 21.6794 148.602 20.9138V9.64038ZM167.34 23.9607V26.7029H155.246V23.9607H167.34ZM167.164 11.5974L156.805 26.7029H154.332V24.6873L164.773 9.64038H167.164V11.5974ZM165.957 9.64038V12.3943H154.344V9.64038H165.957Z" fill="#0768B5"/>
<path d="M43.2121 27.3862C43.2611 25.2352 41.537 23.4523 39.3612 23.4039C37.1854 23.3554 35.3819 25.0598 35.3329 27.2108C35.2839 29.3617 37.008 31.1446 39.1837 31.193C41.3595 31.2415 43.1631 29.5371 43.2121 27.3862Z" fill="url(#paint0_linear_311_114)"/>
<path d="M33.9133 29.1097C32.0068 30.4665 29.7586 31.2771 27.4161 31.4524C25.0737 31.6276 22.7277 31.1607 20.6363 30.1029C18.5449 29.0452 16.7892 27.4377 15.5624 25.4572C14.3355 23.4767 13.685 21.2001 13.6825 18.8778C13.6815 18.3872 13.7098 17.897 13.7675 17.4098C20.441 21.1373 26.4615 21.124 27.128 21.1108H43.7447V18.8778C43.7498 15.1139 42.4979 11.4535 40.1831 8.46504C37.8684 5.47655 34.6204 3.32708 30.9434 2.35029C27.2664 1.3735 23.3661 1.62404 19.8479 3.06302C16.3296 4.50201 13.3904 7.04893 11.4863 10.3084C9.28312 8.33227 7.39507 6.03794 5.88629 3.50332L2.0083 5.78937C4.01199 9.17694 6.61301 12.1825 9.68823 14.6638C8.80778 18.106 9.03334 21.7337 10.3336 25.0433C11.6338 28.3529 13.9442 31.1802 16.944 33.1325C19.9437 35.0849 23.484 36.0655 27.0732 35.9381C30.6624 35.8107 34.1224 34.5816 36.9728 32.4216C36.2602 32.1068 35.6207 31.6503 35.0944 31.0805C34.568 30.5107 34.166 29.8398 33.9133 29.1097ZM26.4526 6.23597C29.4473 6.23924 32.3459 7.28103 34.6434 9.17984C36.941 11.0786 38.4918 13.7141 39.0258 16.6271H27.0385C26.6852 16.6271 21.1567 16.689 15.1362 13.0057C16.2191 10.9648 17.8457 9.25528 19.8403 8.06211C21.8348 6.86894 24.1213 6.23747 26.4526 6.23597Z" fill="url(#paint1_linear_311_114)"/>
<path d="M7.89016 4.64411C7.89104 5.41564 7.66042 6.1701 7.22747 6.81203C6.79452 7.45396 6.17869 7.95452 5.4579 8.25038C4.73711 8.54624 3.94374 8.6241 3.17818 8.47412C2.41261 8.32414 1.70925 7.95305 1.15707 7.4078C0.604895 6.86256 0.228718 6.16765 0.0761332 5.41101C-0.0764514 4.65436 0.00141271 3.86998 0.299875 3.15709C0.598336 2.4442 1.10398 1.83484 1.75285 1.40611C2.40171 0.977378 3.16463 0.748536 3.94508 0.748535C4.9906 0.748534 5.99337 1.15882 6.73309 1.88925C7.47281 2.61969 7.88897 3.61053 7.89016 4.64411Z" fill="url(#paint2_linear_311_114)"/>
<defs>
<linearGradient id="paint0_linear_311_114" x1="35.5374" y1="27.2977" x2="46.3573" y2="27.2977" gradientUnits="userSpaceOnUse">
<stop stop-color="#E65F14"/>
<stop offset="0.5" stop-color="#FFBB00"/>
<stop offset="1" stop-color="#FFE900"/>
</linearGradient>
<linearGradient id="paint1_linear_311_114" x1="2.0083" y1="18.8645" x2="43.7447" y2="18.8645" gradientUnits="userSpaceOnUse">
<stop offset="0.15625" stop-color="#0768B5"/>
<stop offset="0.572917" stop-color="#6FBAF7"/>
<stop offset="0.734375" stop-color="#B7D6EE"/>
<stop offset="1" stop-color="#86ABE2"/>
</linearGradient>
<linearGradient id="paint2_linear_311_114" x1="0.00447211" y1="4.64411" x2="7.89016" y2="4.64411" gradientUnits="userSpaceOnUse">
<stop stop-color="#0087F1"/>
<stop offset="0.5" stop-color="#3787FF"/>
<stop offset="1" stop-color="#87F2F9"/>
</linearGradient>
</defs>
</svg>
