<svg width="24" height="25" viewBox="0 0 24 25" fill="none" xmlns="http://www.w3.org/2000/svg">
<g clip-path="url(#clip0_79_351)">
<path d="M21 10.7236C21 17.7236 12 23.7236 12 23.7236C12 23.7236 3 17.7236 3 10.7236C3 8.33668 3.94821 6.0475 5.63604 4.35967C7.32387 2.67184 9.61305 1.72363 12 1.72363C14.3869 1.72363 16.6761 2.67184 18.364 4.35967C20.0518 6.0475 21 8.33668 21 10.7236Z" stroke="black" stroke-linecap="round" stroke-linejoin="round"/>
<path d="M12 13.7236C13.6569 13.7236 15 12.3805 15 10.7236C15 9.06678 13.6569 7.72363 12 7.72363C10.3431 7.72363 9 9.06678 9 10.7236C9 12.3805 10.3431 13.7236 12 13.7236Z" stroke="black" stroke-linecap="round" stroke-linejoin="round"/>
</g>
<defs>
<clipPath id="clip0_79_351">
<rect width="24" height="24" fill="white" transform="translate(0 0.723633)"/>
</clipPath>
</defs>
</svg>
