<svg width="24" height="25" viewBox="0 0 24 25" fill="none" xmlns="http://www.w3.org/2000/svg">
<g clip-path="url(#clip0_71_3254)">
<path d="M9 4.62292H5C4.44772 4.62292 4 5.06552 4 5.6115V9.56578C4 10.1118 4.44772 10.5544 5 10.5544H9C9.55228 10.5544 10 10.1118 10 9.56578V5.6115C10 5.06552 9.55228 4.62292 9 4.62292Z" stroke="black" stroke-width="2" stroke-linecap="round" stroke-linejoin="round"/>
<path d="M19 4.62292H15C14.4477 4.62292 14 5.06552 14 5.6115V9.56578C14 10.1118 14.4477 10.5544 15 10.5544H19C19.5523 10.5544 20 10.1118 20 9.56578V5.6115C20 5.06552 19.5523 4.62292 19 4.62292Z" stroke="black" stroke-width="2" stroke-linecap="round" stroke-linejoin="round"/>
<path d="M9 14.5085H5C4.44772 14.5085 4 14.9511 4 15.4971V19.4514C4 19.9974 4.44772 20.44 5 20.44H9C9.55228 20.44 10 19.9974 10 19.4514V15.4971C10 14.9511 9.55228 14.5085 9 14.5085Z" stroke="black" stroke-width="2" stroke-linecap="round" stroke-linejoin="round"/>
<path d="M14 17.4743H20M17 14.5085V20.44" stroke="black" stroke-width="2" stroke-linecap="round" stroke-linejoin="round"/>
</g>
<defs>
<clipPath id="clip0_71_3254">
<rect width="24" height="23.7257" fill="white" transform="translate(0 0.668579)"/>
</clipPath>
</defs>
</svg>
