<svg width="35" height="35" viewBox="0 0 35 35" fill="none" xmlns="http://www.w3.org/2000/svg">
<path d="M32.3194 8.24835C31.2061 8.74082 30.0254 9.06425 28.8165 9.20793C30.0908 8.44586 31.0444 7.24649 31.4999 5.83335C30.304 6.54501 28.993 7.04376 27.6265 7.31356C26.7087 6.33148 25.4921 5.68017 24.1658 5.46087C22.8396 5.24157 21.4781 5.46656 20.293 6.10088C19.1078 6.7352 18.1654 7.7433 17.6123 8.96846C17.0592 10.1936 16.9264 11.5672 17.2344 12.8756C14.8094 12.7541 12.437 12.1239 10.2713 11.026C8.10563 9.92806 6.19505 8.38696 4.66361 6.50272C4.12154 7.4338 3.83667 8.49222 3.8382 9.5696C3.8382 11.6842 4.91445 13.5523 6.5507 14.6461C5.58238 14.6156 4.63537 14.3541 3.78861 13.8833V13.9592C3.78891 15.3675 4.27624 16.7324 5.16797 17.8224C6.05971 18.9124 7.30098 19.6605 8.68132 19.9398C7.78243 20.1834 6.83989 20.2193 5.92507 20.0448C6.31425 21.257 7.07279 22.3172 8.09448 23.0768C9.11616 23.8365 10.3498 24.2576 11.6228 24.2813C10.3576 25.2749 8.90908 26.0094 7.3599 26.4428C5.81072 26.8762 4.1913 27 2.59424 26.8071C5.38213 28.6 8.6275 29.5519 11.9422 29.5488C23.1611 29.5488 29.2963 20.2548 29.2963 12.1946C29.2963 11.9321 29.289 11.6667 29.2774 11.4071C30.4715 10.544 31.5022 9.47483 32.3209 8.24981L32.3194 8.24835Z" fill="#09B9FF"/>
</svg>
